<svg xmlns="http://www.w3.org/2000/svg" viewBox="0 0 24 30" x="0px" y="0px"><path d="M149.448481,16.1317569 C149.143797,16.3097997 148.955764,16.6411432 148.955764,17 C148.955764,17.5522847 149.393577,18 149.933646,18 L162.065852,18 C162.416771,18 162.740786,17.8077139 162.914891,17.4961389 C163.182841,17.0166215 163.019929,16.4057668 162.551017,16.1317569 L155.999749,12.3035022 L149.448481,16.1317569 Z M156.977631,10.5714286 L163.521348,14.3952706 C164.928082,15.2173005 165.416818,17.0498645 164.61297,18.4884168 C164.090655,19.4231418 163.118611,20 162.065852,20 L149.933646,20 C148.313438,20 147,18.6568542 147,17 C147,15.9234295 147.564099,14.9293991 148.47815,14.3952706 L155.021867,10.5714286 L155.021867,8 L155.999749,8 C156.809853,8 157.466572,7.32842712 157.466572,6.5 C157.466572,5.67157288 156.809853,5 155.999749,5 C155.189645,5 154.532926,5.67157288 154.532926,6.5 L152.577162,6.5 C152.577162,4.56700338 154.109506,3 155.999749,3 C157.889992,3 159.422336,4.56700338 159.422336,6.5 C159.422336,8.08551032 158.391399,9.42478607 156.977631,9.85506066 L156.977631,10.5714286 Z" transform="translate(-144)"/><text x="0" y="39" fill="#000000" font-size="5px" font-weight="bold" font-family="'Helvetica Neue', Helvetica, Arial-Unicode, Arial, Sans-serif">Created by jenya</text><text x="0" y="44" fill="#000000" font-size="5px" font-weight="bold" font-family="'Helvetica Neue', Helvetica, Arial-Unicode, Arial, Sans-serif">from the Noun Project</text></svg>